<?xml version="1.0" encoding="utf-8"?>
<svg version="1.1" xmlns:xlink="http://www.w3.org/1999/xlink" width="42px" height="42px" xmlns="http://www.w3.org/2000/svg">
  <g transform="matrix(1 0 0 1 -1127 -482 )">
    <path d="M 1148 482  C 1159.76 482  1169 491.24  1169 503  C 1169 514.76  1159.76 524  1148 524  C 1136.24 524  1127 514.76  1127 503  C 1127 491.24  1136.24 482  1148 482  Z " fill-rule="nonzero" fill="#17a6e3" stroke="none" />
    <path d="M 1148 482.5  C 1159.48 482.5  1168.5 491.52  1168.5 503  C 1168.5 514.48  1159.48 523.5  1148 523.5  C 1136.52 523.5  1127.5 514.48  1127.5 503  C 1127.5 491.52  1136.52 482.5  1148 482.5  Z " stroke-width="1" stroke="#797979" fill="none" />
  </g>
</svg>