<?xml version="1.0" encoding="utf-8"?>
<svg version="1.1" xmlns:xlink="http://www.w3.org/1999/xlink" width="35px" height="35px" xmlns="http://www.w3.org/2000/svg">
  <g transform="matrix(1 0 0 1 -1474 -300 )">
    <path d="M 34.9627395315827 1.32990056818182  C 35.0207002602318 1.66962594696969  34.9668795836291 1.99692234848485  34.8012775017743 2.31178977272727  L 18.903477643719 34.1299715909091  C 18.6219541045659 34.709990530303  18.1499881712799 35  17.4875798438609 35  C 17.4047788029335 35  17.2805772415425 34.983428030303  17.1149751596877 34.9502840909091  C 16.7506505796073 34.8674242424242  16.4567068843151 34.6809895833333  16.2331440738112 34.3909801136364  C 16.0095812633073 34.1009706439394  15.8977998580554 33.7736742424242  16 33.4090909090909  L 16 19  L 1.58977998580554 19  C 1.2254554057251 19.0909090909091  0.898391294061983 18.9790482954545  0.608587650816182 18.7553267045455  C 0.318784007570381 18.5316051136364  0.132481665483795 18.2374526515151  0.049680624556423 17.8728693181818  C -0.0331204163709487 17.5082859848485  0 17.1602746212121  0.149041873669269 16.8288352272727  C 0.298083747338538 16.4973958333333  0.538206766027916 16.2488162878788  0.869410929737402 16.0830965909091  L 32.6650106458481 0.174005681818183  C 32.8802933522593 0.0580018939393917  33.1204163709487 0  33.3853797019163 0  C 33.8325053229241 0  34.2051100070972 0.157433712121209  34.5031937544358 0.472301136363638  C 34.7515968772179 0.704308712121209  34.9047788029335 0.990175189393936  34.9627395315827 1.32990056818182  Z " fill-rule="nonzero" fill="#f0c82a" stroke="none" transform="matrix(1 0 0 1 1474 300 )" />
  </g>
</svg>