<?xml version="1.0" encoding="utf-8"?>
<svg version="1.1" xmlns:xlink="http://www.w3.org/1999/xlink" width="33px" height="33px" xmlns="http://www.w3.org/2000/svg">
  <g transform="matrix(1 0 0 1 -661 -122 )">
    <path d="M 32.9648687012065 1.25390625  C 33.0195173882186 1.57421875  32.9687721788503 1.8828125  32.8126330731015 2.1796875  L 17.8232789212207 32.1796875  C 17.5578424414478 32.7265625  17.1128459900639 33  16.4882895670688 33  C 16.4102200141945 33  16.2931156848829 32.984375  16.1369765791341 32.953125  C 15.7934705464869 32.875  15.5163236337828 32.69921875  15.305535841022 32.42578125  C 15.0947480482612 32.15234375  14.9893541518808 31.84375  15 31.5  L 15 18  L 1.49893541518808 18  C 1.15542938254081 18  0.847054648687012 17.89453125  0.573811213626686 17.68359375  C 0.300567778566359 17.47265625  0.124911284599006 17.1953125  0.0468417317246274 16.8515625  C -0.0312278211497516 16.5078125  0 16.1796875  0.140525195173882 15.8671875  C 0.281050390347764 15.5546875  0.507452093683463 15.3203125  0.819730305180979 15.1640625  L 30.7984386089425 0.164062500000001  C 31.0014194464159 0.0546874999999979  31.2278211497516 0  31.4776437189496 0  C 31.8992193044713 0  32.250532292406 0.148437499999997  32.5315826827537 0.445312500000002  C 32.7657913413769 0.664062499999997  32.9102200141945 0.933593749999997  32.9648687012065 1.25390625  Z " fill-rule="nonzero" fill="#f0c82a" stroke="none" transform="matrix(1 0 0 1 661 122 )" />
  </g>
</svg>