<?xml version="1.0" encoding="utf-8"?>
<svg version="1.1" xmlns:xlink="http://www.w3.org/1999/xlink" width="25px" height="19px" xmlns="http://www.w3.org/2000/svg">
  <g transform="matrix(1 0 0 1 -636 -152 )">
    <path d="M 24.9733853797019 0.721946022727272  C 25.0147859001656 0.90636837121212  24.976342559735 1.08404356060606  24.8580553584102 1.25497159090909  L 13.5024840312278 18.5276988636364  C 13.3013957889756 18.8425662878788  12.9642772651999 19  12.4911284599006 19  C 12.4319848592382 19  12.3432694582446 18.9910037878788  12.2249822569198 18.9730113636364  C 11.9647504140052 18.9280303030303  11.7547906316537 18.8268229166667  11.5951029098652 18.6693892045455  C 11.4354151880767 18.5119554924242  11.3555713271824 18.3342803030303  11.3555713271824 18.1363636363636  L 11.3555713271824 10  L 1.13555713271824 10  C 0.875325289803643 10.3636363636364  0.64170806718713 10.3029119318182  0.434705464868701 10.1814630681818  C 0.227702862550272 10.0600142045455  0.0946297610598533 9.90033143939394  0.035486160397445 9.70241477272727  C -0.0236574402649633 9.50449810606061  0 9.31557765151515  0.106458481192335 9.13565340909091  C 0.21291696238467 8.95572916666667  0.384433404305654 8.82078598484848  0.621007806955287 8.73082386363636  L 23.3321504613201 0.0944602272727278  C 23.4859238230423 0.0314867424242412  23.6574402649633 0  23.846699787083 0  C 24.16607523066 0  24.4322214336409 0.0854640151515134  24.6451383960256 0.256392045454546  C 24.8225691980128 0.382339015151513  24.9319848592382 0.537523674242423  24.9733853797019 0.721946022727272  Z " fill-rule="nonzero" fill="#f0c82a" stroke="none" transform="matrix(1 0 0 1 636 152 )" />
  </g>
</svg>